HIERARCHY
ROOT marker_3
{
  OFFSET 0.000000 0.000000 0.000000
  CHANNELS 6 Xposition Yposition Zposition Xrotation Yrotation Zrotation 
  JOINT marker_3_2
  {
    OFFSET 0.000000 0.000000 9.603829
    CHANNELS 3 Xrotation Yrotation Zrotation 
    JOINT marker_2_1
    {
      OFFSET 0.000000 0.000000 7.335344
      CHANNELS 3 Xrotation Yrotation Zrotation 
      End Site
      {
        OFFSET 0.000000 0.000000 3.693331
      }
    }
    JOINT connector_2_12
    {
      OFFSET 0.000000 0.000000 0.000000
      CHANNELS 3 Yrotation Zrotation Xrotation 
      JOINT marker_2_12
      {
        OFFSET 7.157993 0.000000 0.000000
        CHANNELS 3 Yrotation Zrotation Xrotation 
        JOINT marker_12_13
        {
          OFFSET 4.375671 0.000000 0.000000
          CHANNELS 3 Zrotation Xrotation Yrotation 
          JOINT child_marker_12_13
          {
            OFFSET 5.054970 0.000000 0.000000
            CHANNELS 3 Zrotation Xrotation Yrotation 
            End Site
            {
              OFFSET 0.000000 0.000000 3.000000
            }
          }
        }
      }
    }
    JOINT connector_2_9
    {
      OFFSET 0.000000 0.000000 0.000000
      CHANNELS 3 Yrotation Zrotation Xrotation 
      JOINT marker_2_9
      {
        OFFSET -5.160612 -0.000000 -0.000000
        CHANNELS 3 Yrotation Zrotation Xrotation 
        JOINT marker_9_10
        {
          OFFSET -4.975909 -0.000000 -0.000000
          CHANNELS 3 Zrotation Xrotation Yrotation 
          JOINT child_marker_9_10
          {
            OFFSET -6.303883 -0.000000 -0.000000
            CHANNELS 3 Zrotation Xrotation Yrotation 
            End Site
            {
              OFFSET 0.000000 0.000000 3.000000
            }
          }
        }
      }
    }
  }
  JOINT connector_3_4
  {
    OFFSET 0.000000 0.000000 0.000000
    CHANNELS 3 Xrotation Yrotation Zrotation 
    JOINT marker_3_4
    {
      OFFSET -0.000000 -0.000000 -11.915986
      CHANNELS 3 Xrotation Yrotation Zrotation 
      JOINT marker_4_5
      {
        OFFSET -0.000000 -0.000000 -10.687113
        CHANNELS 3 Xrotation Yrotation Zrotation 
        JOINT marker_5_6
        {
          OFFSET -0.000000 -0.000000 -11.245878
          CHANNELS 3 Xrotation Yrotation Zrotation 
          JOINT marker_6_7
          {
            OFFSET -0.000000 -0.000000 -12.307624
            CHANNELS 3 Xrotation Yrotation Zrotation 
            End Site
            {
              OFFSET -0.000000 -0.000000 -13.759849
            }
          }
        }
      }
      JOINT connector_4_19
      {
        OFFSET 0.000000 0.000000 0.000000
        CHANNELS 3 Yrotation Zrotation Xrotation 
        JOINT marker_4_19
        {
          OFFSET 3.799193 0.000000 0.000000
          CHANNELS 3 Yrotation Zrotation Xrotation 
          JOINT marker_19_20
          {
            OFFSET 5.611681 0.000000 0.000000
            CHANNELS 3 Zrotation Xrotation Yrotation 
            JOINT marker_20_21
            {
              OFFSET 6.675463 0.000000 0.000000
              CHANNELS 3 Yrotation Zrotation Xrotation 
              End Site
              {
                OFFSET 4.445951 0.000000 0.000000
              }
            }
          }
        }
      }
      JOINT connector_4_15
      {
        OFFSET 0.000000 0.000000 0.000000
        CHANNELS 3 Yrotation Zrotation Xrotation 
        JOINT marker_4_15
        {
          OFFSET -4.567699 -0.000000 -0.000000
          CHANNELS 3 Yrotation Zrotation Xrotation 
          JOINT marker_15_16
          {
            OFFSET -5.685471 -0.000000 -0.000000
            CHANNELS 3 Zrotation Xrotation Yrotation 
            JOINT marker_16_17
            {
              OFFSET -6.071024 -0.000000 -0.000000
              CHANNELS 3 Yrotation Zrotation Xrotation 
              End Site
              {
                OFFSET -4.087371 -0.000000 -0.000000
              }
            }
          }
        }
      }
    }
  }
}
MOTION
Frames: 14
Frame Time: 0.008333
0.000000 13.211580 0.000000 -0.113050 -0.000000 -0.000000 -12.807830 -7.386667 0.000000 20.961506 -4.357827 -0.000000 18.671495 -48.797913 0.000000 25.121225 19.374901 -3.864248 -83.071699 -0.000000 -0.000000 115.619520 -3.928136 -29.158490 -4.371119 48.268082 0.000000 -64.524013 -53.976395 -55.796945 94.148788 -0.000000 -0.000000 -82.631572 18.520893 45.035726 -8.624637 -2.991279 -0.000000 -4.658784 2.141730 0.000000 -3.643522 -7.885189 -0.000000 1.245265 -2.022911 -0.000000 11.028092 -2.864942 -0.000000 13.354665 -25.943554 -0.000000 -15.357230 30.969547 93.485094 -80.412419 -0.000000 -0.000000 -61.702001 52.323933 75.693548 -6.307205 39.132661 -0.000000 22.302420 -9.021790 57.474400 99.440018 -0.000000 -0.000000 123.805504 -43.459428 114.976318 
-0.286125 13.210820 0.394707 -0.000148 1.065027 0.000000 -12.721216 -7.865528 -0.000000 20.713071 -5.221238 0.000000 19.379983 -48.107371 0.000000 25.735224 20.094975 -3.508079 -83.278117 -0.000000 -0.000000 114.361060 -4.679752 -29.739082 -2.025067 49.003403 0.000000 -62.028146 -55.302805 -61.654174 95.823659 -0.000000 -0.000000 -83.633936 25.619855 39.387959 -8.635740 -4.411314 -0.000000 -4.677942 1.558682 -0.000000 -3.687189 -6.911511 0.000000 1.186811 -1.821971 0.000000 10.890689 -3.265408 0.000000 11.953381 -26.431809 -0.000000 -19.306657 32.127300 94.853070 -86.563828 -0.000000 -0.000000 -64.458559 56.928783 78.880164 -7.443470 39.334381 0.000000 21.593792 -8.964330 58.442004 99.841865 -0.000000 -0.000000 123.899944 -41.096030 116.119830 
-0.558221 13.213227 0.781102 0.183540 1.962712 0.000000 -12.801223 -8.119386 -0.000000 20.591029 -6.190023 -0.000000 19.917363 -47.249073 0.000000 26.287210 20.714538 -3.000165 -83.440032 -0.000000 -0.000000 113.066269 -5.384600 -30.332210 -0.122803 49.779805 0.000000 -57.759467 -56.237110 -65.909913 95.990762 -0.000000 -0.000000 -83.974417 32.616338 33.801633 -8.748121 -5.700319 -0.000000 -4.652310 0.984571 -0.000000 -3.740715 -5.903889 -0.000000 1.117300 -1.598964 0.000000 10.777695 -3.625198 0.000000 10.431655 -26.781062 0.000000 -23.540463 32.766592 96.185422 -92.293504 -0.000000 -0.000000 -69.532861 61.720332 84.485473 -8.549498 39.503314 0.000000 20.816406 -8.987018 59.455260 99.979086 -0.000000 -0.000000 123.780191 -38.844557 116.895445 
-0.813806 13.219443 1.160524 0.434739 2.683294 0.000000 -13.043340 -8.158826 -0.000000 20.609694 -7.215695 -0.000000 20.310904 -46.248449 0.000000 26.778549 21.196618 -2.276145 -83.443186 -0.000000 -0.000000 111.689978 -6.114664 -30.925928 1.379393 50.620736 0.000000 -51.985841 -56.766551 -68.377485 94.960795 -0.000000 -0.000000 -84.004139 39.233407 28.668687 -8.954401 -6.854083 -0.000000 -4.583664 0.432554 0.000000 -3.807129 -4.869999 -0.000000 1.035508 -1.350217 0.000000 10.689580 -3.938525 -0.000000 8.818418 -26.931950 -0.000000 -27.933333 32.738748 97.156432 -97.349638 -0.000000 -0.000000 -77.970396 66.328948 93.837374 -9.625377 39.602575 -0.000000 20.031347 -9.054005 60.494878 99.853783 -0.000000 -0.000000 123.555198 -36.747774 117.352489 
-1.051262 13.229437 1.535138 0.745146 3.227377 -0.000000 -13.433755 -8.005918 -0.000000 20.778338 -8.239128 0.000000 20.593144 -45.136800 -0.000000 27.217750 21.524284 -1.300101 -83.182582 -0.000000 -0.000000 110.178427 -6.929352 -31.519053 2.561317 51.536030 -0.000000 -45.150924 -56.837143 -69.155300 93.107245 -0.000000 -0.000000 -84.180384 45.272551 24.337226 -9.240893 -7.876720 -0.000000 -4.477423 -0.085180 -0.000000 -3.886386 -3.820580 -0.000000 0.941624 -1.071456 -0.000000 10.623156 -4.202686 0.000000 7.135787 -26.857379 -0.000000 -32.279680 31.985996 97.388811 -101.413630 -0.000000 -0.000000 -90.930573 70.131630 104.896919 -10.669809 39.601117 -0.000000 19.284246 -9.127855 61.529203 99.486635 -0.000000 -0.000000 123.315723 -34.853149 117.535319 
-1.269947 13.242670 1.907946 1.102676 3.605250 -0.000000 -13.950389 -7.693291 -0.000000 21.099237 -9.193705 -0.000000 20.798962 -43.949594 -0.000000 27.621404 21.700059 -0.074305 -82.571818 -0.000000 -0.000000 108.476080 -7.864581 -32.121346 3.534386 52.527115 -0.000000 -37.802188 -56.380563 -68.574871 90.746925 -0.000000 -0.000000 -84.949254 50.602102 21.102519 -9.588726 -8.778816 0.000000 -4.343732 -0.560699 -0.000000 -3.974503 -2.766447 -0.000000 0.836899 -0.759054 -0.000000 10.572573 -4.418268 0.000000 5.410693 -26.578784 -0.000000 -36.360111 30.564132 96.591279 -104.122488 -0.000000 -0.000000 -107.945813 72.328091 105.134665 -11.682234 39.478752 -0.000000 18.601574 -9.174782 62.528391 98.908763 -0.000000 -0.000000 123.128687 -33.206265 117.479358 
-1.470292 13.258293 2.282662 1.493211 3.834903 0.000000 -14.564996 -7.259027 -0.000000 21.564630 -10.016133 -0.000000 20.961418 -42.724246 0.000000 28.010105 21.743888 1.359359 -81.550407 -0.000000 -0.000000 106.532594 -8.925440 -32.750404 4.421924 53.586513 -0.000000 -30.486686 -55.349079 -67.076205 88.074845 -0.000000 -0.000000 -86.662059 55.122853 19.201298 -9.976349 -9.575688 -0.000000 -4.196180 -0.990871 -0.000000 -4.064671 -1.717744 -0.000000 0.723779 -0.409952 0.000000 10.530307 -4.588910 -0.000000 3.686075 -26.164510 -0.000000 -40.001411 28.614785 94.694872 -105.148196 -0.000000 -0.000000 -124.538680 72.653643 94.986778 -12.662450 39.228138 0.000000 17.987794 -9.171797 63.471966 98.152720 -0.000000 -0.000000 123.030779 -31.839984 117.208416 
-1.653654 13.275373 2.663635 1.903366 3.939016 0.000000 -15.248456 -6.743019 -0.000000 22.158161 -10.654729 0.000000 21.112120 -41.495999 -0.000000 28.404584 21.688370 2.926151 -80.088799 -0.000000 -0.000000 104.309918 -10.085393 -33.430543 5.339724 54.694255 0.000000 -23.650831 -53.732857 -65.078038 85.153508 -0.000000 -0.000000 -89.501942 58.742884 18.773134 -10.383960 -10.285018 -0.000000 -4.048734 -1.376577 0.000000 -4.148532 -0.683467 -0.000000 0.605056 -0.022647 -0.000000 10.488624 -4.720259 -0.000000 2.025173 -25.709766 0.000000 -43.079330 26.307001 91.888386 -104.303674 -0.000000 -0.000000 -135.487721 72.015861 83.168383 -13.612208 38.851183 0.000000 17.429076 -9.106493 64.353680 97.245656 -0.000000 -0.000000 123.026883 -30.768012 116.735555 
-1.822128 13.293067 3.055587 2.322963 3.941561 0.000000 -15.975263 -6.181827 -0.000000 22.853827 -11.077572 0.000000 21.277847 -40.294000 -0.000000 28.821843 21.572907 4.531244 -78.190202 -0.000000 -0.000000 101.786933 -11.292400 -34.189014 6.378609 55.814738 0.000000 -17.583462 -51.554525 -62.903369 81.942634 -0.000000 -0.000000 -93.397578 61.381141 19.772450 -10.798016 -10.925859 -0.000000 -3.911190 -1.718885 -0.000000 -4.218923 0.327359 -0.000000 0.483374 0.402778 -0.000000 10.441032 -4.819476 -0.000000 0.488753 -25.306736 -0.000000 -45.472734 23.782434 88.521388 -101.622699 -0.000000 -0.000000 -139.356594 71.714119 77.142258 -14.530925 38.354181 -0.000000 16.892229 -8.978146 65.177662 96.203326 -0.000000 -0.000000 123.088998 -29.977703 116.062293 
-1.978179 13.310763 3.463353 2.746839 3.864165 -0.000000 -16.727196 -5.604890 -0.000000 23.617327 -11.278383 0.000000 21.480472 -39.137757 -0.000000 29.268615 21.437234 6.079854 -75.888844 -0.000000 -0.000000 98.963080 -12.481240 -35.049977 7.593510 56.899425 -0.000000 -12.416558 -48.859693 -60.768788 78.351627 -0.000000 -0.000000 -97.953417 62.996382 21.874121 -11.214494 -11.516942 -0.000000 -3.785684 -2.015147 0.000000 -4.271621 1.303871 -0.000000 0.360664 0.864518 -0.000000 10.382999 -4.893809 0.000000 -0.898270 -25.020041 -0.000000 -47.045216 21.134191 84.955487 -97.365327 -0.000000 -0.000000 -136.613098 72.418654 75.890233 -15.415282 37.740656 0.000000 16.331418 -8.790079 65.955091 95.028977 -0.000000 -0.000000 123.161470 -29.435581 115.179430 
-2.124322 13.328157 3.891543 3.175266 3.724351 -0.000000 -17.494919 -5.034522 -0.000000 24.408741 -11.276625 -0.000000 21.735838 -38.035897 -0.000000 29.741899 21.314371 7.493163 -73.243124 -0.000000 -0.000000 95.858718 -13.587935 -36.029418 8.999949 57.895073 -0.000000 -8.163754 -45.713801 -58.810623 74.297289 -0.000000 -0.000000 -102.504028 63.625791 24.496657 -11.638989 -12.075532 -0.000000 -3.666169 -2.257933 0.000000 -4.306345 2.233193 -0.000000 0.237624 1.358565 -0.000000 10.313105 -4.949000 -0.000000 -2.165582 -24.883519 -0.000000 -47.685435 18.430799 81.461675 -91.961033 -0.000000 -0.000000 -127.178079 73.919700 68.598500 -16.256388 37.011699 -0.000000 15.691280 -8.550447 66.701907 93.713726 -0.000000 -0.000000 123.167136 -29.091770 114.732347 
-2.262704 13.345280 4.344276 3.612987 3.534066 -0.000000 -18.276855 -4.486360 -0.000000 25.185930 -11.112263 0.000000 22.055245 -36.986682 0.000000 30.226569 21.225474 8.726177 -70.325503 -0.000000 -0.000000 92.513495 -14.565567 -37.127478 10.570170 58.755168 -0.000000 -4.758445 -42.206264 -57.105541 69.758895 -0.000000 -0.000000 -106.354438 63.400021 27.004907 -12.083646 -12.613115 -0.000000 -3.541303 -2.439209 -0.000000 -4.326045 3.101057 0.000000 0.113946 1.879765 -0.000000 10.232444 -4.988348 0.000000 -3.369930 -24.914522 0.000000 -47.376554 15.755534 78.186513 -85.925894 -0.000000 -0.000000 -110.562169 75.261537 54.223055 -17.046001 36.170247 0.000000 14.922982 -8.271256 67.442554 92.242237 -0.000000 -0.000000 123.017888 -28.891586 114.381741 
-2.394866 13.362427 4.824709 4.066724 3.300084 -0.000000 -19.075504 -3.972485 -0.000000 25.907854 -10.838375 -0.000000 22.444839 -35.981823 -0.000000 30.700567 21.175454 9.777852 -67.209124 -0.000000 -0.000000 88.982110 -15.399024 -38.322569 12.237191 59.450376 0.000000 -2.098455 -38.454365 -55.690122 64.822760 -0.000000 -0.000000 -109.067558 62.515192 28.965890 -12.561335 -13.132743 -0.000000 -3.399967 -2.555831 -0.000000 -4.334984 3.894508 -0.000000 -0.011661 2.421933 -0.000000 10.144506 -5.011830 0.000000 -4.546137 -25.126776 0.000000 -46.223907 13.219675 75.158841 -79.785957 -0.000000 -0.000000 -89.089425 75.201703 35.067817 -17.777438 35.230746 -0.000000 13.994183 -7.974679 68.212921 90.600748 -0.000000 -0.000000 122.626339 -28.785813 113.798298 
-2.521516 13.380093 5.334854 4.541780 3.025538 -0.000000 -19.891493 -3.505436 -0.000000 26.537844 -10.510606 0.000000 22.909172 -35.011797 -0.000000 31.138335 21.152827 10.692100 -63.957700 -0.000000 -0.000000 85.329442 -16.111925 -39.570473 13.898825 59.975198 -0.000000 -0.077350 -34.605137 -54.565986 59.706909 -0.000000 -0.000000 -110.586595 61.179349 30.250635 -13.079800 -13.627612 -0.000000 -3.235473 -2.613138 -0.000000 -4.337411 4.602229 0.000000 -0.140841 2.978756 -0.000000 10.053980 -5.015539 -0.000000 -5.670198 -25.527669 -0.000000 -44.431522 10.939222 72.316650 -74.017315 -0.000000 -0.000000 -69.325263 73.273836 17.730379 -18.453287 34.222393 0.000000 12.901840 -7.692522 69.060032 88.783783 -0.000000 -0.000000 121.918207 -28.740851 112.896238 
